<?xml version="1.0"?>
<svg xmlns="http://www.w3.org/2000/svg" fill="none" height="18" viewBox="0 0 18 18" width="18"><g stroke="currentColor" stroke-linecap="round" stroke-linejoin="round" stroke-width="2"><path d="M17 3V6H14"/><path d="M1 15V12H4"/><path d="M15.7632 4.72696C14.9744 3.47851 13.8555 2.47275 12.5303 1.82108C11.2051 1.16941 9.72542 0.897251 8.25509 1.03476C6.78476 1.17226 5.38118 1.71406 4.1998 2.60015C3.01843 3.48623 2.10537 4.68202 1.56176 6.05508"/><path d="M2.23678 13.273C3.02556 14.5215 4.14451 15.5272 5.46969 16.1789C6.79487 16.8306 8.27458 17.1027 9.74491 16.9652C11.2152 16.8277 12.6188 16.2859 13.8002 15.3999C14.9816 14.5138 15.8946 13.318 16.4382 11.9449"/><path d="M10 12C9 12 7 11.4 7 9C7 6.6 9 6 10 6C11 6 11 6 11 6"/><path d="M10.5 9H6"/></g></svg>
